# xmcd
#
# Track frame offsets:
#	150
#	12626
#	25521
#	36826
#	47323
#	56916
#	68205
#	80369
#	92432
#	101648
#	112487
#	121066
#	132695
#	144825
#	155042
#	166002
#	177525
#
# Disc length: 2552 seconds
#
# Revision: 0
# Processed by: cddbd v1.5.1PL0 Copyright (c) Steve Scherf et al.
# Submitted via: dBpowerAMP V4.0
#
DISCID=e509f611
DTITLE=Bill Monroe - The Essential Collection
DYEAR=2003
DGENRE=Bluegrass
TTITLE0=Uncle Pen
TTITLE1=I'm Blue, I'm Lonesome
TTITLE2=New Mule Skinner Blues
TTITLE3=Nine Pound Hammer
TTITLE4=Blue Moon Of Kentucky
TTITLE5=I Saw The Light
TTITLE6=Footprints In The Snow
TTITLE7=You're Drifting Away
TTITLE8=Rocky Road Blues
TTITLE9=Cry Cry Darlin'
TTITLE10=Scotland
TTITLE11=Gotta Travel On
TTITLE12=The Long Black Veil
TTITLE13=Toy Heart
TTITLE14=Jimmy Brown The Newsboy
TTITLE15=Fireball Mail
TTITLE16=Kentucky Waltz
EXTD=
EXTT0=
EXTT1=
EXTT2=
EXTT3=
EXTT4=
EXTT5=
EXTT6=
EXTT7=
EXTT8=
EXTT9=
EXTT10=
EXTT11=
EXTT12=
EXTT13=
EXTT14=
EXTT15=
EXTT16=
PLAYORDER=
